{"accessors" : [{"bufferView" : 0, "byteOffset" : 0, "componentType" : 5123, "count" : 3, "type" : "SCALAR", "max" : [2], "min" : [0]}, {"bufferView" : 1, "byteOffset" : 0, "componentType" : 5126, "count" : 3, "type" : "VEC3", "max" : [1.855518230848733E+19, 8.346350993468687E+35, 2.3501176545191507E-41], "min" : [6.910082987278538E-41, -2007720311914496, 0], "name" : "POSITION"}, {"bufferView" : 1, "byteOffset" : 12, "componentType" : 5126, "count" : 3, "type" : "VEC3", "max" : [-1.0000044107437134, 1.4970878242776997E-19, 2.349977524672718E-41], "min" : [-1.0000044107437134, 1.4970878242776997E-19, 2.349977524672718E-41], "name" : "NORMAL"}], "asset" : {"generator" : "Aspose.3D 23.2", "version" : "2.0"}, "buffers" : [{"uri" : "data:application/octet-stream;base64,", "byteLength" : 88}], "bufferViews" : [{"buffer" : 0, "byteOffset" : 0, "byteLength" : 8, "target" : 34963}, {"buffer" : 0, "byteOffset" : 12, "byteLength" : 72, "byteStride" : 24, "target" : 34962}], "meshes" : [{"primitives" : [{"attributes" : {"POSITION" : 1, "NORMAL" : 2}, "indices" : 0, "mode" : 4}], "name" : ""}], "nodes" : [{"mesh" : 0, "name" : ""}], "scene" : 0, "scenes" : [{"nodes" : [0]}]}